# xmcd
#
# Track frame offsets:
#	150
#	15002
#	27642
#	41730
#	53660
#	68045
#	80955
#	94597
#	107195
#	118700
#	131047
#	144912
#	156600
#	170840
#	186072
#	198797
#	211152
#	224945
#	238897
#	250040
#	263222
#
# Disc length: 3691 seconds
#
# Revision: 0
# Processed by: cddbd v1.5.2PL0 Copyright (c) Steve Scherf et al.
# Submitted via: dBpowerAMP V4.0
#
DISCID=3a0e6915
DTITLE=Various Artist - Suitcase Full f Blues
DYEAR=1995
DGENRE=Blues
TTITLE0=The Gone Dead Train - King Solomon Hill
TTITLE1=Frisco Whistle Blues - Ed Bell
TTITLE2=Ramblin' Man - Ramblin' Thomas
TTITLE3=Going Away Blues - Lottie Kimborough
TTITLE4=Poor Boy, Long Ways From Home - Gus Cannon and Blind Blake
TTITLE5=Florida Bound - Edward Thompson
TTITLE6=Pea Vine Blues - Charley Patton
TTITLE7=Rambler Blues - Blind Lemon Jefferson
TTITLE8=Up The Way Bound - Papa Charlie Jackson
TTITLE9=Frisco Leaving Birmingham - George 'Bullet' Williams
TTITLE10=Slidin' Delta - Tommy Johnson
TTITLE11=Down The Country - Leola B. Wilson
TTITLE12=M&O Blues - Willie Brown
TTITLE13=Georgia Bound - Blind Blake
TTITLE14=Number Three Blues - Buddy Boy Hawkins
TTITLE15=Sunshine Special - Blind Lemon Jefferson
TTITLE16=Illinois Blues - Skip James
TTITLE17=I Wonder To Myself - Tommy Johnson
TTITLE18=Poor Boy Blues - Ramblin' Thomas
TTITLE19=Mean Conductor Blues - Ed Bell
TTITLE20=Suitcase Full Of Blues - Ishman Bracey
EXTD=
EXTT0=
EXTT1=
EXTT2=
EXTT3=
EXTT4=
EXTT5=
EXTT6=
EXTT7=
EXTT8=
EXTT9=
EXTT10=
EXTT11=
EXTT12=
EXTT13=
EXTT14=
EXTT15=
EXTT16=
EXTT17=
EXTT18=
EXTT19=
EXTT20=
PLAYORDER=
